# xmcd
#
# Track frame offsets:
#	150
#	16493
#	35180
#	55666
#	72450
#	94270
#	119401
#	138540
#
# Disc length: 2267 seconds
#
# Revision: 2
# Processed by: cddbd v1.5.1PL0 Copyright (c) Steve Scherf et al.
# Submitted via: dBpowerAMP V4.0
#
DISCID=7608d908
DTITLE=The Midnight Blues - Midnight Blues
DYEAR=1999
DGENRE=blues
TTITLE0=Cadillacman
TTITLE1=It Aint Easy
TTITLE2=A Song For Plasticdolls
TTITLE3=Texas Blues
TTITLE4=You're Mine
TTITLE5=Still My Woman
TTITLE6=Born To Be Wild
TTITLE7=Sweet Little Misery
EXTD=
EXTT0=
EXTT1=
EXTT2=
EXTT3=
EXTT4=
EXTT5=
EXTT6=
EXTT7=
PLAYORDER=
